<?xml version="1.0" ?><!DOCTYPE svg  PUBLIC '-//W3C//DTD SVG 1.1//EN'  'http://www.w3.org/Graphics/SVG/1.1/DTD/svg11.dtd'><svg enable-background="new 0 0 64 64" height="64px" version="1.1" viewBox="0 0 64 64" width="64px" xml:space="preserve" xmlns="http://www.w3.org/2000/svg" xmlns:xlink="http://www.w3.org/1999/xlink"><g id="_x35_0_China"/><g id="_x34_9_fever"/><g id="_x34_8_Thermo_Head"/><g id="_x34_7_Call_Hospital"/><g id="_x34_6_Hospital_Bed"/><g id="_x34_5_Eye"/><g id="_x34_4_Ambulance"/><g id="_x34_3_disinfectant"/><g id="_x34_2_Antibody"/><g id="_x34_1_Death"/><g id="_x34_0_Isolation_Room"/><g id="_x33_9_Soap"/><g id="_x33_8_Corona_Virus"/><g id="_x33_7_Medic"/><g id="_x33_6_Vitamin"><g><path d="M26.895,36.211c-0.99-0.495-2.19-0.093-2.684,0.895L22,41.528l-2.211-4.423c-0.493-0.987-1.693-1.39-2.684-0.895    c-0.988,0.494-1.389,1.695-0.895,2.684l4,8C20.55,47.572,21.242,48,22,48s1.45-0.428,1.789-1.105l4-8    C28.283,37.906,27.883,36.705,26.895,36.211z"/><path d="M32,36c-1.104,0-2,0.896-2,2v8c0,1.104,0.896,2,2,2s2-0.896,2-2v-8C34,36.896,33.104,36,32,36z"/><path d="M46,36h-8c-1.104,0-2,0.896-2,2s0.896,2,2,2h2v6c0,1.104,0.896,2,2,2s2-0.896,2-2v-6h2c1.104,0,2-0.896,2-2    S47.104,36,46,36z"/><path d="M46,20h-2v-2.35c2.326-0.827,4-3.044,4-5.65V6c0-3.309-2.691-6-6-6H22c-3.309,0-6,2.691-6,6v6c0,2.606,1.674,4.823,4,5.65    V20h-2c-5.514,0-10,4.486-10,10v24c0,5.514,4.486,10,10,10h28c5.514,0,10-4.486,10-10V30C56,24.486,51.514,20,46,20z M20,6    c0-1.103,0.897-2,2-2h20c1.103,0,2,0.897,2,2v6c0,1.103-0.897,2-2,2H22c-1.103,0-2-0.897-2-2V6z M24,18h16v2H24V18z M52,54    c0,3.309-2.691,6-6,6H18c-3.309,0-6-2.691-6-6V30c0-3.309,2.691-6,6-6h28c3.309,0,6,2.691,6,6V54z"/><path d="M26,12c1.104,0,2-0.896,2-2V8c0-1.104-0.896-2-2-2s-2,0.896-2,2v2C24,11.104,24.896,12,26,12z"/><path d="M32,12c1.104,0,2-0.896,2-2V8c0-1.104-0.896-2-2-2s-2,0.896-2,2v2C30,11.104,30.896,12,32,12z"/><path d="M38,12c1.104,0,2-0.896,2-2V8c0-1.104-0.896-2-2-2s-2,0.896-2,2v2C36,11.104,36.896,12,38,12z"/></g></g><g id="_x33_5_Diare"/><g id="_x33_4_Hand_sanitizer"/><g id="_x33_3_Soap"/><g id="_x33_2_Wash_Hand"/><g id="_x33_1_Wash_with_Soap"/><g id="_x33_0_Stethoscope"/><g id="_x32_9_Lockdown"/><g id="_x32_8_Bat"/><g id="_x32_7_Pills"/><g id="_x32_6_Airborne"/><g id="_x32_5_Lockdown"/><g id="_x32_4_Siocial_Distance"/><g id="_x32_3_Thermometer"/><g id="_x32_2_Hand_Soap"/><g id="_x32_1_Alcohol"/><g id="_x32_0_Vaccine"/><g id="_x31_9_Clinic"/><g id="_x31_8_Check_Up"/><g id="_x31_7_Pneumonia"/><g id="_x31_6_Masker"/><g id="_x31_5_Use_Masker"/><g id="_x31_4_No_Travel"/><g id="_x31_3_No_crowd"/><g id="_x31_2_Work_from_Home"/><g id="_x31_1_Quarantine"/><g id="_x31_0_Face_Contact"/><g id="_x30_9_Headache"/><g id="_x30_8_Puke"/><g id="_x30_7_Sore_Throath"/><g id="_x30_6_Breathe"/><g id="_x30_5_Cough"/><g id="_x30_4_Blood"/><g id="_x30_3_Microscope"/><g id="_x30_2_Pandemic"/><g id="_x30_1_Corona_Virus"/></svg>